<svg width="1825" height="900" viewBox="0 0 1825 900" fill="none" xmlns="http://www.w3.org/2000/svg">
<g clip-path="url(#clip0_6897_7371)">
<g opacity="0.17" clip-path="url(#clip1_6897_7371)">
<path d="M1741.11 851.03C1711.87 851.03 1706 836.413 1715 813.306C1751.8 718.817 1770.2 618.898 1770.2 518.971C1770.2 419.043 1751.8 319.125 1715 224.635C1706.01 201.529 1711.87 186.911 1741.11 186.911C1775.96 186.911 1809.15 196.199 1839.35 213.003C1869.55 229.807 1896.74 254.12 1919.58 284.161C1965.25 344.269 1993.5 427.283 1993.5 518.979C1993.5 610.674 1965.25 693.689 1919.58 753.772C1896.74 783.813 1869.55 808.134 1839.35 824.93C1809.16 841.734 1775.96 851.022 1741.11 851.022L1741.11 851.03Z" stroke="white" stroke-width="3" stroke-miterlimit="10"/>
<path d="M1908.84 261.902C1949.52 319.914 1986.08 413.863 1986.08 518.979C1986.08 586.553 1971.25 649.521 1948.16 702.719C1935.59 731.663 1921.77 756.932 1908.84 776.056C1897.5 792.835 1880.26 804.567 1861.85 815.584C1848.62 823.5 1835.48 831.465 1821.32 837.51C1788.78 851.396 1753.22 857.54 1716.02 855.861C1686.61 854.531 1680.17 840.262 1687.61 816.998C1706.47 758.062 1718.63 696.882 1724.16 635.552C1727.76 595.741 1730.15 556.478 1733.66 518.987C1738.9 462.97 1736.52 405 1728.56 347.203C1722.61 305.156 1713.57 263.124 1700.53 222.074C1693.31 199.383 1699.07 184.624 1725.51 182.172C1726.62 182.072 1727.75 181.972 1728.92 181.897C1764.6 179.677 1797.85 187.451 1828.89 200.489C1860.24 213.66 1888.28 232.584 1908.84 261.91L1908.84 261.902Z" stroke="white" stroke-width="3" stroke-miterlimit="10"/>
<path d="M1898.11 239.618C1933.85 295.577 1978.66 400.435 1978.66 518.979C1978.66 592.806 1961.69 661.336 1937.48 718.409C1923.28 751.884 1908.89 779.955 1898.12 798.331C1888.48 814.769 1868.79 822.909 1847.13 831.964C1832.73 837.984 1818.65 845.235 1803.29 850.082C1768.48 861.074 1730.55 864.117 1690.94 860.683C1661.4 858.131 1654.34 844.062 1660.25 820.673C1675.38 760.698 1683.9 698.429 1686.38 636.708C1688.05 595.259 1690.1 555.489 1697.15 518.979C1707.59 464.866 1709.24 406.554 1705.42 347.702C1702.64 304.973 1696.65 261.777 1686.07 219.48C1680.28 196.315 1686.75 181.107 1713.28 177.332C1714.41 177.174 1715.57 177 1716.76 176.85C1753.27 172.393 1786.82 178.671 1818.45 187.942C1851.28 197.562 1879.87 211.024 1898.13 239.618L1898.11 239.618Z" stroke="white" stroke-width="3" stroke-miterlimit="10"/>
<path d="M1887.38 217.335C1918.24 271.289 1971.24 387.015 1971.24 518.97C1971.24 599.058 1952.17 673.16 1926.8 734.099C1910.97 772.114 1896.06 802.921 1887.39 820.606C1879.51 836.679 1857.62 841.327 1832.42 848.344C1817.04 852.626 1801.83 859.012 1785.27 862.646C1748.22 870.769 1707.93 870.736 1665.86 865.506C1636.21 861.822 1628.49 847.829 1632.87 824.348C1644.26 763.234 1649.03 699.909 1648.58 637.872C1648.28 594.726 1649.98 554.608 1660.62 518.97C1676.16 466.887 1681.82 408.134 1682.25 348.201C1682.56 304.806 1679.68 260.472 1671.6 216.894C1667.21 193.272 1674.43 177.565 1701.02 172.501C1702.17 172.285 1703.36 172.036 1704.57 171.811C1741.94 165.101 1776.03 169.799 1807.98 175.403C1842.63 181.481 1871.47 189.488 1887.4 217.335L1887.38 217.335Z" stroke="white" stroke-width="3" stroke-miterlimit="10"/>
<path d="M1876.65 195.059C1902.68 247.068 1963.81 373.594 1963.81 518.978C1963.81 605.319 1942.66 685.008 1916.12 749.805C1898.68 792.368 1883.27 825.835 1876.65 842.897C1870.58 858.562 1846.63 859.926 1817.69 864.732C1801.46 867.426 1785.02 872.814 1767.23 875.225C1727.99 880.53 1685.33 877.437 1640.76 870.336C1611.02 865.597 1602.61 851.561 1605.49 828.03C1613.1 765.678 1614.03 701.33 1610.79 639.035C1608.45 594.144 1609.78 553.809 1624.09 518.97C1644.61 468.998 1654.38 409.738 1659.08 348.708C1662.47 304.656 1662.7 259.199 1657.13 214.307C1654.14 190.253 1662.11 173.989 1688.77 167.67C1689.95 167.387 1691.15 167.063 1692.39 166.78C1730.6 157.808 1765.47 160.743 1797.52 162.872C1834.29 165.308 1863.11 167.977 1876.66 195.059L1876.65 195.059Z" stroke="white" stroke-width="3" stroke-miterlimit="10"/>
<path d="M1865.9 172.775C1887.19 222.922 1956.38 360.166 1956.38 518.978C1956.38 611.572 1933.17 696.856 1905.42 765.495C1886.38 812.607 1870.52 848.618 1865.9 865.173C1861.67 880.364 1835.74 878.701 1802.95 881.112C1785.92 882.368 1768.21 886.633 1749.18 887.789C1707.77 890.317 1662.74 884.189 1615.65 875.159C1585.81 869.438 1576.68 855.261 1578.08 831.714C1581.87 768.023 1578.9 702.718 1572.96 640.208C1568.54 593.537 1569.47 553.069 1587.53 518.978C1612.87 471.185 1626.91 411.36 1635.89 349.223C1642.34 304.523 1645.66 257.969 1642.63 211.73C1641.02 187.251 1649.77 170.389 1676.49 162.847C1677.7 162.506 1678.92 162.107 1680.18 161.75C1719.25 150.508 1755.04 151.448 1787.03 150.334C1826.13 148.97 1854.75 146.492 1865.9 172.775Z" stroke="white" stroke-width="3" stroke-miterlimit="10"/>
<path d="M1855.17 150.5C1871.76 198.909 1948.96 346.754 1948.96 518.979C1948.96 617.833 1923.69 708.714 1894.74 781.194C1874.1 832.862 1857.81 871.276 1855.17 887.457C1852.79 902.074 1824.89 897.676 1788.23 897.501C1770.42 897.418 1751.42 900.47 1731.15 900.37C1687.59 900.154 1640.17 891.007 1590.57 879.99C1560.62 873.338 1550.75 858.946 1550.71 835.398C1550.59 770.302 1543.68 704.083 1535.18 641.372C1528.61 592.889 1529.08 552.338 1551.02 518.979C1581.02 473.364 1599.46 412.973 1612.73 349.731C1622.24 304.39 1628.63 256.747 1628.17 209.153C1627.93 184.258 1637.48 166.764 1664.24 158.025C1665.48 157.618 1666.72 157.152 1667.99 156.72C1707.92 143.192 1744.72 141.92 1776.58 137.804C1818.13 132.441 1846.46 125.057 1855.18 150.5L1855.17 150.5Z" stroke="white" stroke-width="3" stroke-miterlimit="10"/>
<path d="M1844.44 128.216C1856.39 175.029 1941.54 333.326 1941.54 518.978C1941.54 624.085 1914.23 720.57 1884.06 796.892C1861.83 853.108 1842.11 893.934 1844.44 909.74C1841.28 923.327 1814.01 916.824 1773.5 913.889C1754.91 912.542 1734.63 914.322 1713.11 912.941C1667.4 910.015 1617.6 897.883 1565.47 884.821C1535.44 877.287 1524.76 862.612 1523.33 839.081C1519.23 772.521 1508.35 705.429 1497.38 642.544C1488.61 592.24 1488.6 551.605 1514.49 518.978C1548.99 475.508 1571.99 414.594 1589.56 350.238C1602.12 304.249 1611.56 255.532 1613.69 206.567C1614.79 181.265 1625.17 163.105 1651.99 153.194C1653.25 152.728 1654.51 152.18 1655.81 151.681C1696.59 135.849 1733.71 126.479 1766.11 125.265C1807.78 108.045 1838.18 103.679 1844.45 128.216L1844.44 128.216Z" stroke="white" stroke-width="3" stroke-miterlimit="10"/>
<path d="M1833.7 105.933C1841.04 151.349 1934.12 319.906 1934.12 518.979C1934.12 630.347 1904.77 732.436 1873.37 812.582C1849.56 873.363 1828.88 916.791 1833.7 932.016C1831.96 945.103 1803.1 936.107 1758.77 930.27C1739.38 927.717 1717.84 928.174 1695.08 925.514C1647.21 919.91 1595.03 904.818 1540.39 889.644C1510.25 881.279 1498.76 866.254 1495.94 842.765C1487.78 774.7 1472.94 706.776 1459.59 643.709C1448.54 591.575 1448.02 550.816 1477.96 518.979C1516.87 477.604 1544.5 416.216 1566.4 350.746C1582 304.116 1594.46 254.336 1599.22 203.989C1601.65 178.288 1612.86 159.43 1639.74 148.372C1641.04 147.84 1642.31 147.224 1643.62 146.651C1685.27 128.516 1722.94 116.518 1755.65 112.735C1798.96 90.6589 1829.91 82.3857 1833.72 105.941L1833.7 105.933Z" stroke="white" stroke-width="3" stroke-miterlimit="10"/>
<path d="M1822.97 83.6576C1813.7 126.986 1926.7 306.486 1926.7 518.979C1926.7 636.6 1895.32 744.293 1862.69 828.28C1837.31 893.618 1815.65 939.665 1822.97 954.299C1822.63 966.88 1792.15 955.513 1744.05 946.658C1723.83 942.933 1701.05 942.052 1677.05 938.086C1627 929.821 1572.45 911.803 1515.3 894.475C1485.05 885.303 1472.71 869.896 1468.56 846.448C1456.25 776.862 1437.44 708.132 1421.79 644.873C1408.44 590.91 1407.38 549.984 1441.43 518.978C1484.65 479.625 1517 417.829 1543.23 351.253C1561.86 303.975 1577.33 253.138 1584.75 201.403C1588.49 175.295 1600.54 155.73 1627.48 143.541C1628.8 142.942 1630.1 142.26 1631.43 141.612C1673.92 121.157 1712.15 106.548 1745.18 100.196C1790.13 73.2558 1827.69 61.6317 1822.97 83.6659L1822.97 83.6576Z" stroke="white" stroke-width="3" stroke-miterlimit="10"/>
<path d="M1812.23 61.3737C1796.94 101.9 1919.27 293.057 1919.27 518.978C1919.27 642.852 1885.87 756.158 1852 843.979C1825.04 913.873 1802.41 962.531 1812.23 976.583C1813.3 988.656 1781.13 975.011 1729.32 963.046C1708.25 958.182 1684.25 955.937 1659.01 950.666C1606.8 939.757 1549.84 918.845 1490.19 899.305C1459.82 889.361 1446.61 873.546 1441.16 850.131C1424.61 779.015 1401.86 709.495 1383.97 646.045C1368.24 590.269 1366.67 549.094 1404.89 518.978C1452.35 481.57 1489.47 419.442 1520.05 351.759C1541.7 303.833 1560.16 251.94 1570.26 198.817C1575.3 172.31 1588.2 152.013 1615.21 138.701C1616.56 138.036 1617.87 137.279 1619.23 136.564C1662.57 113.79 1703.33 102.041 1734.7 87.6485C1785.97 64.1176 1819.76 41.4016 1812.23 61.3737Z" stroke="white" stroke-width="3" stroke-miterlimit="10"/>
<path d="M1801.5 39.0904C1787.3 79.7414 1911.85 279.637 1911.85 518.97C1911.85 649.105 1876.43 768.023 1841.32 859.661C1812.8 934.119 1789.19 985.38 1801.5 998.85C1803.98 1010.42 1770.07 994.568 1714.6 979.41C1692.66 973.415 1667.45 969.807 1640.98 963.213C1586.59 949.676 1527.24 925.905 1465.11 904.111C1434.61 893.41 1420.52 877.172 1413.79 853.79C1392.91 781.152 1366.25 710.851 1346.18 647.184C1328.03 589.596 1325.97 548.105 1368.37 518.954C1420.06 483.416 1461.96 421.022 1496.89 352.242C1521.55 303.667 1542.98 250.718 1555.79 196.215C1562.11 169.3 1575.88 148.264 1602.97 133.854C1604.34 133.122 1605.68 132.299 1607.05 131.518C1651.24 106.415 1692.86 91.8228 1724.25 75.1017C1777.71 46.6153 1801.18 18.7607 1801.5 39.0821L1801.5 39.0904Z" stroke="white" stroke-width="3" stroke-miterlimit="10"/>
<path d="M1790.77 16.8154C1771.12 55.6954 1904.43 266.218 1904.43 518.979C1904.43 655.366 1866.99 779.897 1830.64 875.367C1800.55 954.391 1775.96 1008.26 1790.77 1021.14C1794.65 1032.21 1758.94 1014.2 1699.87 995.807C1677.03 988.698 1650.64 983.709 1622.94 975.802C1566.37 959.646 1504.61 933.047 1440.02 908.951C1409.38 897.518 1394.37 880.83 1386.4 857.491C1361.11 783.356 1330.57 712.264 1308.38 648.374C1287.75 588.998 1285.21 547.108 1331.83 518.979C1387.73 485.246 1434.43 422.652 1473.71 352.775C1501.39 303.543 1525.77 249.53 1541.31 193.654C1548.91 166.332 1563.54 144.539 1590.7 129.048C1592.11 128.25 1593.46 127.352 1594.85 126.504C1639.88 99.0653 1682.3 81.6042 1713.78 62.58C1769.32 29.0215 1792.49 -2.62456 1790.77 16.8154Z" stroke="white" stroke-width="3" stroke-miterlimit="10"/>
<path d="M1780.03 -5.4684C1754.95 31.6488 1897 252.789 1897 518.979C1897 661.627 1857.55 791.762 1819.96 891.066C1788.31 974.654 1762.73 1031.13 1780.04 1043.43C1785.33 1053.99 1747.79 1033.87 1685.16 1012.2C1661.41 1003.98 1633.85 997.611 1604.92 988.382C1546.15 969.615 1481.97 940.231 1414.94 913.79C1384.16 901.65 1368.22 884.505 1359.04 861.182C1329.26 785.584 1294.87 713.686 1270.6 649.546C1247.46 588.399 1244.5 546.043 1295.31 518.987C1355.41 487 1406.91 424.257 1450.56 353.29C1481.24 303.401 1508.56 248.316 1526.85 191.077C1535.71 163.347 1551.21 140.789 1578.46 124.226C1579.89 123.361 1581.27 122.396 1582.69 121.474C1628.55 91.69 1671.71 71.3353 1703.34 50.0495C1760.84 11.3441 1783.83 -24.0187 1780.05 -5.46008L1780.03 -5.4684Z" stroke="white" stroke-width="3" stroke-miterlimit="10"/>
<path d="M1769.3 -27.7438C1738.77 7.6024 1889.58 239.377 1889.58 518.979C1889.58 667.88 1848.12 803.636 1809.28 906.756C1776.07 994.909 1749.51 1053.99 1769.31 1065.7C1776.01 1075.76 1736.58 1053.56 1670.43 1028.58C1645.75 1019.25 1617.03 1011.51 1586.88 1000.95C1525.9 979.577 1459.29 947.432 1389.84 918.604C1358.9 905.766 1342.04 888.172 1331.64 864.849C1297.31 787.838 1259.1 715.108 1232.78 650.702C1206.46 586.295 1203.74 544.904 1258.77 518.97C1323.08 488.671 1379.36 425.828 1427.38 353.78C1461.07 303.227 1491.3 247.077 1512.37 188.482C1522.48 160.337 1538.83 137.014 1566.2 119.386C1567.65 118.447 1569.05 117.416 1570.49 116.426C1617.18 84.2981 1661.04 61.0499 1692.86 37.5024C1752.21 -6.40799 1775.13 -45.421 1769.31 -27.7521L1769.3 -27.7438Z" stroke="white" stroke-width="3" stroke-miterlimit="10"/>
<path d="M1758.57 -50.028C1722.59 -16.4445 1882.16 225.948 1882.16 518.978C1882.16 674.14 1838.69 815.5 1798.59 922.453C1763.83 1015.17 1736.28 1076.86 1758.57 1087.98C1766.68 1097.55 1725.34 1073.29 1655.71 1044.96C1630.09 1034.54 1600.22 1025.42 1568.85 1013.53C1505.67 989.562 1436.61 954.69 1364.75 923.443C1333.66 909.915 1315.85 891.872 1304.27 868.549C1265.34 790.157 1223.32 716.588 1194.99 651.882C1166.69 587.268 1163.01 543.756 1222.25 518.986C1290.78 490.334 1351.82 427.432 1404.22 354.304C1440.91 303.085 1474.05 245.846 1497.9 185.913C1509.27 157.343 1526.48 133.255 1553.94 114.572C1555.42 113.566 1556.85 112.468 1558.3 111.404C1605.83 76.9306 1650.33 50.7806 1682.4 24.9798C1743.49 -24.1772 1766.44 -66.8072 1758.57 -50.0196L1758.57 -50.028Z" stroke="white" stroke-width="3" stroke-miterlimit="10"/>
<path d="M1747.82 -72.3114C1706.41 -40.499 1874.73 212.52 1874.73 518.978C1874.73 680.394 1829.25 827.374 1787.9 938.152C1751.59 1035.44 1723.05 1099.73 1747.83 1110.27C1757.34 1119.32 1714.06 1093.04 1640.98 1061.35C1614.4 1049.83 1583.4 1039.33 1550.81 1026.1C1485.41 999.54 1413.88 961.982 1339.66 928.266C1308.39 914.064 1289.65 895.564 1276.89 872.224C1233.3 792.502 1187.51 718.06 1157.19 653.046C1126.87 588.033 1122.29 542.559 1185.72 518.987C1258.49 491.947 1324.29 429.012 1381.05 354.803C1420.75 302.91 1456.78 244.59 1483.43 183.319C1496.04 154.317 1514.11 129.464 1541.7 109.733C1543.2 108.66 1544.64 107.488 1546.12 106.357C1594.47 69.5307 1639.58 40.5038 1671.94 12.433C1734.69 -41.9956 1757.76 -88.2092 1747.84 -72.303L1747.82 -72.3114Z" stroke="white" stroke-width="3" stroke-miterlimit="10"/>
<path d="M1737.09 -94.5866C1695.77 -57.2947 1867.3 199.108 1867.3 518.979C1867.3 686.646 1819.82 839.248 1777.21 953.842C1739.35 1055.7 1711.71 1118.44 1737.09 1132.54C1749.22 1139.28 1702.76 1112.8 1626.24 1077.73C1598.7 1065.11 1566.56 1053.24 1532.77 1038.67C1465.14 1009.52 1391.13 969.299 1314.56 933.097C1283.12 918.23 1263.42 899.289 1249.49 875.908C1201.21 794.905 1151.66 719.565 1119.38 654.21C1085.8 586.22 1081.56 541.329 1149.17 518.987C1226.21 493.527 1296.73 430.592 1357.86 355.31C1400.55 302.744 1439.48 243.327 1468.94 180.741C1482.79 151.307 1501.72 125.681 1529.42 104.91C1530.95 103.763 1532.42 102.524 1533.92 101.335C1583.09 62.1639 1628.77 30.2517 1661.45 -0.0889721C1725.79 -59.7975 1751.34 -107.441 1737.08 -94.57L1737.09 -94.5866Z" stroke="white" stroke-width="3" stroke-miterlimit="10"/>
<path d="M1726.36 -116.87C1678.78 -81.2333 1859.88 185.68 1859.88 518.978C1859.88 692.907 1810.39 851.121 1766.53 969.54C1727.11 1075.97 1698.14 1141.48 1726.36 1154.83C1739.67 1161.12 1691.43 1132.57 1611.52 1094.11C1583 1080.39 1549.74 1067.14 1514.74 1051.23C1444.89 1019.5 1368.37 976.641 1289.48 937.911C1257.85 922.387 1237.21 902.997 1222.12 879.574C1169.12 797.341 1115.82 721.078 1081.59 655.366C1045.31 585.729 1040.88 540.064 1112.66 518.97C1193.97 495.073 1269.19 432.147 1334.71 355.8C1380.4 302.561 1422.2 242.029 1454.48 178.138C1469.57 148.263 1489.35 121.872 1517.18 100.062C1518.73 98.8485 1520.21 97.5431 1521.74 96.2792C1571.72 54.7552 1617.95 19.9827 1651.01 -12.6528C1716.85 -77.6496 1742.3 -128.81 1726.37 -116.879L1726.36 -116.87Z" stroke="white" stroke-width="3" stroke-miterlimit="10"/>
<path d="M1715.63 -139.154C1661.81 -105.396 1852.46 172.26 1852.46 518.97C1852.46 699.152 1800.97 862.978 1755.85 985.222C1714.88 1096.22 1684.62 1164.56 1715.62 1177.09C1730.15 1182.96 1680.08 1152.33 1596.79 1110.48C1567.29 1095.66 1532.91 1081.04 1496.7 1063.8C1424.62 1029.47 1345.59 984.016 1264.37 942.725C1232.56 926.545 1210.97 906.73 1194.72 883.249C1136.97 799.835 1079.93 722.616 1043.78 656.522C1004.79 585.264 1000.18 538.792 1076.12 518.962C1161.73 496.612 1241.63 433.702 1311.53 356.299C1360.22 302.378 1404.89 240.732 1439.99 175.553C1456.32 145.237 1476.94 118.081 1504.91 95.2233C1506.49 93.9345 1508 92.5626 1509.54 91.2322C1560.34 47.3468 1607.08 9.73063 1640.53 -25.1998C1707.83 -95.4847 1733.27 -150.238 1715.63 -139.171L1715.63 -139.154Z" stroke="white" stroke-width="3" stroke-miterlimit="10"/>
<path d="M1704.89 -161.43C1644.91 -129.717 1845.04 158.84 1845.04 518.978C1845.04 705.421 1791.54 874.86 1745.16 1000.93C1702.66 1116.5 1671.14 1187.7 1704.89 1199.39C1720.67 1204.86 1668.71 1172.13 1582.07 1126.88C1551.56 1110.96 1516.08 1094.97 1478.66 1076.38C1404.35 1039.46 1322.77 991.433 1239.28 947.564C1207.26 930.743 1184.75 910.497 1167.34 886.941C1104.82 802.388 1044.06 724.196 1005.98 657.702C964.252 584.848 959.509 537.52 1039.58 518.978C1129.51 498.15 1214.09 435.282 1288.36 356.823C1340.05 302.22 1387.58 239.452 1425.52 172.983C1443.07 142.218 1464.54 114.297 1492.66 90.4089C1494.26 89.0536 1495.79 87.6151 1497.35 86.2099C1548.96 39.9714 1596.2 -0.480098 1630.06 -37.7221C1698.77 -113.287 1724.27 -171.69 1704.89 -161.438L1704.89 -161.43Z" stroke="white" stroke-width="3" stroke-miterlimit="10"/>
<path d="M1694.16 -183.713C1628.1 -154.162 1837.62 145.412 1837.62 518.979C1837.62 711.674 1782.11 886.734 1734.48 1016.63C1690.43 1136.76 1657.7 1210.84 1694.15 1221.67C1711.21 1226.74 1657.33 1191.92 1567.34 1143.27C1535.84 1126.24 1499.25 1108.88 1460.63 1088.96C1384.07 1049.45 1299.95 998.884 1214.19 952.396C1181.97 934.926 1158.52 914.264 1139.95 890.625C1072.66 804.974 1008.16 725.784 968.179 658.867C923.7 584.433 918.849 536.224 1003.06 518.979C1097.31 499.672 1186.54 436.845 1265.2 357.331C1319.88 302.046 1370.28 238.147 1411.05 170.398C1429.83 139.184 1452.15 110.498 1480.4 85.5785C1482.02 84.1484 1483.58 82.6434 1485.16 81.1717C1537.59 32.5801 1585.3 -10.6984 1619.6 -50.2602C1689.67 -131.097 1715.33 -193.191 1694.15 -183.721L1694.16 -183.713Z" stroke="white" stroke-width="3" stroke-miterlimit="10"/>
<path d="M1683.42 -205.988C1611.38 -178.683 1830.19 132 1830.19 518.978C1830.19 717.926 1772.69 898.607 1723.79 1032.32C1678.19 1157.02 1644.29 1233.97 1683.41 1243.95C1701.77 1248.63 1645.92 1211.71 1552.6 1159.65C1520.11 1141.52 1482.41 1122.79 1442.59 1101.53C1363.79 1059.45 1277.09 1006.34 1189.09 957.226C1156.65 939.125 1132.29 918.038 1112.56 894.308C1040.48 807.593 972.264 727.389 930.372 660.03C883.115 584.05 878.197 534.918 966.515 518.97C1065.12 501.168 1158.98 438.4 1242.02 357.829C1299.7 301.863 1352.95 236.824 1396.56 167.811C1416.58 136.14 1439.73 106.698 1468.14 80.7472C1469.79 79.2423 1471.36 77.6791 1472.97 76.1325C1526.2 25.1795 1574.39 -20.9011 1609.13 -62.7993C1680.53 -148.907 1706.42 -214.719 1683.41 -206.005L1683.42 -205.988Z" stroke="white" stroke-width="3" stroke-miterlimit="10"/>
<path d="M1672.69 -228.272C1594.74 -203.261 1822.76 118.572 1822.76 518.979C1822.76 724.188 1763.26 910.481 1713.11 1048.02C1665.96 1177.29 1630.93 1257.12 1672.68 1266.23C1692.36 1270.52 1634.51 1231.51 1537.89 1176.04C1504.37 1156.8 1465.58 1136.71 1424.56 1114.1C1343.51 1069.43 1254.21 1013.82 1164.01 962.049C1131.35 943.307 1106.07 921.822 1085.19 897.992C1008.31 810.254 936.371 729.019 892.582 661.203C842.529 583.701 837.57 533.613 929.998 518.979C1032.97 502.673 1131.45 439.963 1218.86 358.345C1279.55 301.688 1335.65 235.511 1382.1 165.234C1403.34 133.098 1427.32 102.907 1455.89 75.9251C1457.56 74.3536 1459.16 72.7156 1460.79 71.1108C1514.82 17.7964 1563.46 -31.078 1598.67 -75.321C1671.37 -166.676 1697.56 -236.254 1672.69 -228.272Z" stroke="white" stroke-width="3" stroke-miterlimit="10"/>
<path d="M1661.96 -250.555C1578.2 -227.855 1815.34 105.144 1815.34 518.979C1815.34 730.441 1754.12 922.454 1702.43 1063.71C1654.01 1197.66 1617.59 1280.26 1661.96 1288.51C1682.97 1292.42 1623.1 1251.31 1523.17 1192.43C1488.64 1172.08 1448.75 1150.63 1406.54 1126.68C1323.24 1079.43 1231.33 1021.33 1138.92 966.889C1106.04 947.515 1079.85 925.622 1057.81 901.684C976.126 812.965 900.471 730.666 854.786 662.376C801.929 583.369 796.945 532.3 893.466 518.988C1000.82 504.179 1103.9 441.519 1195.69 358.861C1259.37 301.514 1318.33 234.181 1367.63 162.657C1390.1 130.055 1414.9 99.1072 1443.64 71.103C1445.33 69.4567 1446.95 67.7522 1448.6 66.0809C1503.44 10.4134 1552.52 -41.2464 1588.21 -87.8591C1662.19 -184.46 1688.73 -257.805 1661.96 -250.546L1661.96 -250.555Z" stroke="white" stroke-width="3" stroke-miterlimit="10"/>
<path d="M1651.22 -272.831C1561.72 -252.451 1807.92 91.7312 1807.92 518.978C1807.92 736.701 1744.67 934.319 1691.75 1079.4C1641.76 1217.91 1604.27 1303.39 1651.22 1310.79C1673.59 1314.31 1611.67 1271.1 1508.44 1208.8C1472.9 1187.35 1431.91 1164.53 1388.5 1139.24C1302.95 1089.4 1208.41 1028.83 1113.83 971.694C1080.72 951.689 1053.63 929.405 1030.43 905.342C943.943 815.659 864.562 732.303 816.988 663.523C761.31 583.027 756.326 530.96 856.94 518.97C968.679 505.65 1076.36 443.056 1172.53 359.351C1239.21 301.314 1301.01 232.825 1353.16 160.062C1376.85 126.994 1402.48 95.2982 1431.39 66.263C1433.1 64.5501 1434.75 62.7791 1436.42 61.033C1492.06 3.00406 1541.57 -51.4246 1577.76 -100.407C1652.98 -202.238 1679.93 -279.375 1651.23 -272.839L1651.22 -272.831Z" stroke="white" stroke-width="3" stroke-miterlimit="10"/>
<path d="M1640.49 -295.114C1545.31 -277.054 1800.5 78.3032 1800.5 518.979C1800.5 742.954 1735.22 946.185 1681.07 1095.1C1629.52 1238.18 1590.97 1326.52 1640.49 1333.07C1664.21 1336.21 1600.23 1290.91 1493.72 1225.19C1457.16 1202.62 1415.08 1178.45 1370.47 1151.82C1282.67 1099.4 1185.48 1036.38 1088.74 976.534C1055.4 955.905 1027.41 933.222 1003.05 909.042C911.761 818.428 828.652 733.991 779.189 664.704C720.683 582.745 715.716 529.647 820.407 518.979C936.546 507.147 1048.81 444.611 1149.36 359.867C1219.04 301.14 1283.68 231.487 1338.68 157.485C1363.61 123.943 1390.05 91.5071 1419.13 61.4409C1420.86 59.6532 1422.53 57.8156 1424.23 56.003C1480.66 -4.38733 1530.6 -61.5765 1567.28 -112.937C1643.74 -219.982 1671.13 -300.934 1640.48 -295.114L1640.49 -295.114Z" stroke="white" stroke-width="3" stroke-miterlimit="10"/>
<path d="M1629.75 -317.398C1528.93 -301.642 1793.07 64.8741 1793.07 518.97C1793.07 749.206 1725.77 958.032 1670.37 1110.79C1617.27 1258.43 1577.66 1349.63 1629.75 1355.35C1654.84 1358.1 1588.77 1310.7 1478.99 1241.57C1441.4 1217.89 1398.23 1192.36 1352.42 1164.38C1262.36 1109.38 1162.52 1043.93 1063.64 981.347C1030.06 960.086 1001.18 937.021 975.659 912.708C879.579 821.187 792.734 735.662 741.383 665.859C680.039 582.462 675.106 528.307 783.874 518.97C904.423 508.618 1021.26 446.149 1126.19 360.365C1198.86 300.939 1266.36 230.122 1324.2 154.89C1350.35 120.874 1377.61 87.6899 1406.87 56.6009C1408.62 54.7384 1410.32 52.8426 1412.04 50.9552C1469.26 -11.7883 1519.62 -71.7379 1556.81 -125.485C1634.49 -237.743 1662.37 -322.504 1629.75 -317.407L1629.75 -317.398Z" stroke="white" stroke-width="3" stroke-miterlimit="10"/>
<path d="M1619.01 -339.673C1512.61 -326.22 1785.65 51.4626 1785.65 518.978C1785.65 755.468 1716.33 969.906 1659.69 1126.49C1605.02 1278.68 1564.39 1372.76 1619.01 1377.63C1645.48 1379.99 1577.31 1330.5 1464.26 1257.96C1425.64 1233.17 1381.39 1206.28 1334.39 1176.96C1242.07 1119.37 1139.55 1051.52 1038.55 986.186C1004.71 964.302 974.968 940.854 948.269 916.4C847.397 823.998 756.816 737.375 703.576 667.032C639.379 582.212 634.503 526.985 747.331 518.978C872.299 510.106 993.547 447.513 1103.01 360.881C1178.58 300.624 1249.02 228.767 1309.72 152.321C1337.1 117.831 1365.16 83.9069 1394.61 51.7786C1396.38 49.8496 1398.1 47.879 1399.84 45.925C1457.86 -19.1798 1508.63 -81.8734 1546.34 -138.015C1625.22 -255.47 1653.61 -344.055 1619 -339.682L1619.01 -339.673Z" stroke="white" stroke-width="3" stroke-miterlimit="10"/>
<path d="M1608.28 -361.957C1496.32 -350.782 1778.23 38.0343 1778.23 518.978C1778.23 761.721 1706.87 981.771 1649.01 1142.19C1592.77 1298.95 1551.13 1395.86 1608.28 1399.91C1636.14 1401.88 1565.85 1350.31 1449.54 1274.34C1409.89 1248.44 1364.55 1220.2 1316.36 1189.53C1221.78 1129.36 1116.56 1059.1 1013.46 991.009C979.377 968.493 948.759 944.671 920.896 920.076C815.231 826.809 720.915 739.079 665.786 668.196C598.735 581.963 593.926 525.647 710.814 518.978C840.208 511.587 966.04 449.084 1079.85 361.388C1158.44 300.457 1231.72 227.404 1295.26 149.735C1323.87 114.763 1352.73 80.1072 1382.36 46.9478C1384.15 44.9439 1385.9 42.9068 1387.66 40.8946C1446.47 -26.5716 1497.65 -91.9924 1535.88 -150.545C1615.95 -273.188 1644.89 -365.607 1608.27 -361.957L1608.28 -361.957Z" stroke="white" stroke-width="3" stroke-miterlimit="10"/>
<path d="M1597.55 -384.233C1480.06 -375.319 1770.8 24.6221 1770.8 518.978C1770.8 767.981 1697.43 993.636 1638.32 1157.89C1580.53 1319.21 1537.87 1418.97 1597.55 1422.2C1626.79 1423.78 1554.38 1370.1 1434.82 1290.73C1394.13 1263.73 1347.71 1234.12 1298.33 1202.11C1201.49 1139.36 1093.54 1066.71 988.371 995.848C954.026 972.708 922.543 948.512 893.514 923.775C783.074 829.66 685.005 740.825 627.988 669.376C558.075 581.755 553.349 524.333 674.281 518.986C808.1 513.074 938.525 450.664 1056.68 361.903C1138.29 300.299 1214.39 226.04 1280.78 147.165C1310.61 111.711 1340.28 76.3151 1370.1 42.133C1371.92 40.0543 1373.69 37.959 1375.47 35.8719C1434.95 -34.0554 1486.66 -102.104 1525.42 -163.076C1606.68 -290.891 1636.17 -387.16 1597.55 -384.233Z" stroke="white" stroke-width="3" stroke-miterlimit="10"/>
<path d="M1586.82 -406.516C1463.82 -399.856 1763.38 11.1941 1763.38 518.978C1763.38 774.234 1687.99 1005.5 1627.64 1173.58C1568.28 1339.47 1524.62 1442.06 1586.82 1444.47C1617.46 1445.66 1542.91 1389.9 1420.09 1307.11C1378.37 1278.99 1330.81 1248.12 1280.3 1214.68C1181.07 1149.51 1070.52 1074.32 963.287 1000.66C928.684 976.899 896.344 952.337 866.134 927.443C750.918 832.504 649.097 742.547 590.191 670.532C517.408 581.539 512.773 522.986 637.757 518.978C776.02 514.547 911.012 452.236 1033.51 362.403C1118.13 300.125 1197.06 224.66 1266.3 144.572C1297.37 108.635 1327.83 72.5074 1357.85 37.2942C1359.68 35.149 1361.48 32.9788 1363.28 30.8253C1423.58 -41.4385 1475.66 -112.231 1514.96 -175.623C1597.39 -308.609 1627.46 -408.72 1586.81 -406.516L1586.82 -406.516Z" stroke="white" stroke-width="3" stroke-miterlimit="10"/>
<path d="M1576.08 -428.8C1447.61 -424.377 1755.96 -2.23456 1755.96 518.978C1755.96 780.495 1678.54 1017.36 1616.96 1189.28C1556.03 1359.73 1511.39 1465.15 1576.08 1466.76C1608.12 1467.55 1531.43 1409.7 1405.37 1323.49C1362.62 1294.25 1313.99 1262 1262.27 1227.25C1160.82 1159.44 1047.49 1081.94 938.202 1005.49C903.333 981.098 870.144 956.178 838.761 931.126C718.769 835.373 613.196 744.301 552.402 671.696C476.747 581.339 472.205 521.647 601.232 518.978C743.946 516.026 883.498 453.807 1010.35 362.909C1097.99 299.958 1179.75 223.279 1251.83 141.985C1284.13 105.567 1315.38 68.7072 1345.59 32.463C1347.44 30.243 1349.27 28.0146 1351.1 25.7862C1412.22 -48.8058 1464.67 -122.35 1504.5 -188.162C1588.1 -326.304 1618.76 -430.272 1576.08 -428.8Z" stroke="white" stroke-width="3" stroke-miterlimit="10"/>
<path d="M1565.34 -451.074C1431.41 -448.871 1748.53 -15.6453 1748.53 518.979C1748.53 786.749 1669.09 1029.22 1606.27 1204.97C1543.79 1379.99 1498.14 1488.24 1565.33 1489.04C1598.77 1489.44 1519.93 1429.51 1390.63 1339.88C1346.83 1309.52 1297.15 1275.88 1244.21 1239.83C1140.54 1169.38 1024.41 1089.58 913.084 1010.33C877.949 985.306 843.92 960.021 811.347 934.819C686.596 838.259 577.262 746.073 514.57 672.878C436.037 581.182 431.603 520.127 564.674 518.987C711.831 517.291 855.95 455.388 987.149 363.426C1077.81 299.801 1162.29 221.817 1237.33 139.417C1270.81 102.466 1302.9 64.925 1333.31 27.6498C1335.18 25.3549 1337.03 23.06 1338.89 20.7651C1400.83 -56.155 1453.64 -132.443 1494.01 -200.683C1578.8 -343.988 1610.06 -451.814 1565.34 -451.074Z" stroke="white" stroke-width="3" stroke-miterlimit="10"/>
<path d="M1554.61 1511.32C1484.91 1511.32 1531.54 1400.25 1595.59 1220.66C1659.65 1041.08 1741.12 793.001 1741.12 518.979C1741.11 -29.0742 1415.22 -473.358 1554.61 -473.358C1624.31 -473.358 1519.31 -225.278 1321.08 22.8101C1221.96 146.85 1099.54 270.89 964.002 363.924C828.451 456.959 679.781 518.979 528.164 518.979C391.067 518.979 395.376 580.999 476.796 674.033C558.208 767.067 716.722 891.107 888.015 1015.15C1059.31 1139.19 1243.38 1263.23 1375.92 1356.26C1508.46 1449.3 1589.46 1511.32 1554.62 1511.32L1554.61 1511.32Z" stroke="white" stroke-width="3" stroke-miterlimit="10"/>
</g>
</g>
<defs>
<clipPath id="clip0_6897_7371">
<rect x="0.458984" width="1824" height="900" rx="32" fill="white"/>
</clipPath>
<clipPath id="clip1_6897_7371">
<rect width="1988" height="1576" fill="white" transform="translate(1993.92 -475.021) rotate(90)"/>
</clipPath>
</defs>
</svg>
