<svg width="159" height="55" viewBox="0 0 159 55" fill="none" xmlns="http://www.w3.org/2000/svg">
  <path d="M89.3492 31.9344a10.2396 10.2396 0 0 1-3.9229 4.0662c-1.6798.9783-3.5933 1.4673-5.7405 1.4671-2.1472-.0002-4.0607-.4893-5.7405-1.4671a10.23304 10.23304 0 0 1-3.9229-4.0662c-.9358-1.7326-1.4035-3.6726-1.4033-5.8202.0003-2.1475.4681-4.0876 1.4033-5.8202a10.24066 10.24066 0 0 1 3.9229-4.0661c1.6793-.9778 3.5928-1.4668 5.7405-1.4672 2.1477-.0003 4.0612.4888 5.7405 1.4672a10.24527 10.24527 0 0 1 3.9229 4.0661c.9353 1.7332 1.4031 3.6733 1.4033 5.8202 0 2.1478-.4677 4.0878-1.4033 5.8202Zm-15.0847-2.0569c.5103 1.1057 1.2331 1.972 2.1686 2.599.9354.6271 2.0198.9407 3.253.9408 1.2119 0 2.2856-.3136 3.2211-.9408.9355-.6271 1.6583-1.4935 2.1686-2.599.5102-1.1055.7654-2.3599.7654-3.7633.0001-1.4033-.2551-2.6577-.7654-3.7632-.5103-1.1054-1.2331-1.9718-2.1686-2.5992-.9355-.6273-2.0092-.9409-3.2211-.9407-1.2334 0-2.3177.3136-3.253.9407-.9353.6272-1.6582 1.4936-2.1686 2.5992-.5103 1.1057-.7654 2.3602-.7654 3.7632 0 1.4031.2551 2.6575.7654 3.7633ZM157.596 31.9344c-.9 1.6965-2.26 3.1055-3.923 4.0662-1.679.9783-3.593 1.4673-5.74 1.4671-2.147-.0002-4.061-.4893-5.741-1.4671-1.663-.9604-3.022-2.3695-3.923-4.0662-.935-1.7326-1.403-3.6726-1.403-5.8202.001-2.1475.468-4.0876 1.403-5.8202.901-1.6964 2.26-3.1054 3.923-4.0661 1.68-.9778 3.593-1.4668 5.741-1.4672 2.148-.0003 4.061.4888 5.74 1.4672 1.663.9609 3.023 2.3698 3.923 4.0661.936 1.7332 1.403 3.6733 1.404 5.8202 0 2.1478-.468 4.0878-1.404 5.8202Zm-15.084-2.0569c.51 1.1057 1.233 1.972 2.168 2.599.936.6271 2.02.9407 3.253.9408 1.212 0 2.286-.3136 3.221-.9408.936-.6271 1.659-1.4935 2.169-2.599.51-1.1055.765-2.3599.765-3.7633 0-1.4033-.255-2.6577-.765-3.7632-.51-1.1054-1.233-1.9718-2.169-2.5992-.935-.6273-2.009-.9409-3.221-.9407-1.233 0-2.318.3136-3.253.9407-.935.6272-1.658 1.4936-2.168 2.5992-.511 1.1057-.766 2.3602-.766 3.7632 0 1.4031.255 2.6575.766 3.7633ZM37.1353 33.3595l-1.0529-2.992-1.3865-3.9398-1.0029-2.8513-1.3131-3.7316-1.5254-4.3341h-7.3983l-1.1809 3.3562-1.0529 2.9921-5.2292 14.86h4.8794l1.5308-4.3375h7.3996L28.49 28.65h-4.779l1.003-2.8512 2.0949-5.9539.3465-.9854.3464.9854 5.935 16.8707.0014.0034h4.8794l-1.1823-3.3595ZM61.5387 17.4082c1.1055 1.2651 1.6582 2.8968 1.6582 4.8953 0 2.1049-.5475 3.8004-1.6424 5.0868-1.0949 1.2863-2.7905 1.9294-5.0867 1.9294h-6.3783v7.3988H45.21V15.5107h11.2577c2.275 0 3.9653.6325 5.071 1.8975Zm-6.6015 8.1483c1.1267 0 1.9452-.287 2.4557-.8612.5104-.5741.7655-1.3607.7654-2.3599 0-2.0411-1.0631-3.0616-3.1892-3.0616h-4.8794v6.2827h4.8475ZM102.173 15.5107v17.3491h9.919v3.8589H97.2939v-21.208h4.8791ZM122.366 15.5107v17.3491h9.918v3.8589h-14.798v-21.208h4.88Z" fill="#15252D"/>
  <path d="M42.0489 8.6105a2.82852 2.82852 0 0 0 1.2781-.30477 2.8289 2.8289 0 0 0 1.0025-.8494 2.82939 2.82939 0 0 0 .5105-1.21072 2.8284 2.8284 0 0 0-.7656-2.43868 2.82797 2.82797 0 0 0-1.1108-.70172 2.82855 2.82855 0 0 0-2.5311.35627 27.16335 27.16335 0 0 0-27.5748.61089A27.16328 27.16328 0 0 0 .03245 28.4907a27.16376 27.16376 0 0 0 4.43056 13.5906A27.16333 27.16333 0 0 0 15.18 51.5406a27.16298 27.16298 0 0 0 14.0355 2.7086 27.16239 27.16239 0 0 0 13.4672-4.7923c.1193-.0832.2211-.1891.2994-.3117.0784-.1225.1319-.2594.1574-.4026.0255-.1432.0225-.29-.0087-.4321a1.10908 1.10908 0 0 0-.1734-.3959 1.10971 1.10971 0 0 0-.3117-.2994 1.10766 1.10766 0 0 0-.4026-.1573 1.10847 1.10847 0 0 0-.4321.0086 1.10876 1.10876 0 0 0-.396.1735 24.94355 24.94355 0 0 1-12.353 4.3956 24.94525 24.94525 0 0 1-12.8758-2.4766A24.94425 24.94425 0 0 1 5.05472 15.6255 24.94424 24.94424 0 0 1 39.2547 5.34187a2.82906 2.82906 0 0 0 .0725 1.2095 2.8278 2.8278 0 0 0 .5719 1.06824 2.8283 2.8283 0 0 0 .9663.73108 2.82923 2.82923 0 0 0 1.1835.25981Z" fill="#15252D"/>
</svg>